<?xml version="1.0" encoding="UTF-8" standalone="no"?>
<!DOCTYPE svg PUBLIC "-//W3C//DTD SVG 1.1//EN" "http://www.w3.org/Graphics/SVG/1.1/DTD/svg11.dtd">
<svg version="1.1" xmlns="http://www.w3.org/2000/svg" xmlns:xlink="http://www.w3.org/1999/xlink" preserveAspectRatio="xMidYMid meet" viewBox="0 0 640 640" width="640" height="640"><defs><path d="M0 319.99C0 496.71 143.26 639.98 319.99 639.98C496.71 639.98 639.98 496.71 639.98 319.99C639.8 143.34 496.64 0.17 319.99 0C143.26 0 0 143.26 0 319.99ZM34.53 319.99C34.52 162.35 162.3 34.55 319.94 34.53C477.58 34.52 605.39 162.3 605.4 319.94C605.4 319.96 605.4 319.97 605.4 319.99C605.93 477.08 479.02 604.86 321.93 605.4C321.28 605.4 320.64 605.4 319.99 605.4C162.35 605.41 34.55 477.63 34.53 319.99Z" id="b9jCccBTy"></path><path d="M215.4 283.25C196.29 283.25 180.8 267.76 180.8 248.65C180.8 229.54 196.29 214.05 215.4 214.05C234.44 213.98 249.94 229.37 250 248.42C250 248.5 250 248.57 250 248.65C250 267.76 234.51 283.25 215.4 283.25Z" id="bZDCShS1G"></path><path d="M429.44 283.25C410.33 283.25 394.84 267.76 394.84 248.65C394.84 229.54 410.33 214.05 429.44 214.05C448.49 213.98 463.98 229.37 464.04 248.42C464.04 248.5 464.04 248.57 464.04 248.65C464.04 267.76 448.55 283.25 429.44 283.25Z" id="aTw0nHdQk"></path><path d="M319.45 497.3C387.16 497.14 450.25 462.9 487.28 406.21C484.35 404.35 460.94 389.43 458.01 387.57C408.54 463.92 306.54 485.7 230.2 436.23C210.73 423.62 194.15 407.04 181.54 387.57C178.61 389.43 155.2 404.35 152.27 406.21C184.7 455.93 237.43 488.77 296.35 495.94C303.98 496.78 311.64 497.23 319.31 497.3C319.34 497.3 319.42 497.3 319.45 497.3Z" id="buM8uWbVn"></path></defs><g><g><g><use xlink:href="#b9jCccBTy" opacity="1" fill="#51ae32" fill-opacity="1"></use><g><use xlink:href="#b9jCccBTy" opacity="1" fill-opacity="0" stroke="#000000" stroke-width="1" stroke-opacity="0"></use></g></g><g><use xlink:href="#bZDCShS1G" opacity="1" fill="#51ae32" fill-opacity="1"></use><g><use xlink:href="#bZDCShS1G" opacity="1" fill-opacity="0" stroke="#000000" stroke-width="1" stroke-opacity="0"></use></g></g><g><use xlink:href="#aTw0nHdQk" opacity="1" fill="#51ae32" fill-opacity="1"></use><g><use xlink:href="#aTw0nHdQk" opacity="1" fill-opacity="0" stroke="#000000" stroke-width="1" stroke-opacity="0"></use></g></g><g><use xlink:href="#buM8uWbVn" opacity="1" fill="#51ae32" fill-opacity="1"></use><g><use xlink:href="#buM8uWbVn" opacity="1" fill-opacity="0" stroke="#000000" stroke-width="1" stroke-opacity="0"></use></g></g></g></g></svg>