<?xml version="1.0" encoding="UTF-8" standalone="no"?>
<!DOCTYPE svg PUBLIC "-//W3C//DTD SVG 1.1//EN" "http://www.w3.org/Graphics/SVG/1.1/DTD/svg11.dtd">
<svg version="1.1" xmlns="http://www.w3.org/2000/svg" xmlns:xlink="http://www.w3.org/1999/xlink" preserveAspectRatio="xMidYMid meet" viewBox="0 0 640 640" width="640" height="640"><defs><path d="M0.01 319.99C0.01 496.71 143.28 639.98 320 639.98C496.72 639.98 639.99 496.71 639.99 319.99C639.82 143.34 496.65 0.17 320 0C143.28 0 0.01 143.26 0.01 319.99ZM34.55 319.99C34.53 162.35 162.31 34.55 319.95 34.53C477.59 34.52 605.4 162.3 605.41 319.94C605.41 319.96 605.41 319.97 605.41 319.99C605.95 477.08 479.03 604.86 321.94 605.4C321.29 605.4 320.65 605.4 320 605.4C162.36 605.41 34.56 477.63 34.55 319.99Z" id="cnBnX1awb"></path><path d="M215.41 283.25C196.3 283.25 180.81 267.76 180.81 248.65C180.81 229.54 196.3 214.05 215.41 214.05C215.41 214.05 215.41 214.05 215.41 214.05C234.46 213.98 249.95 229.37 250.01 248.42C250.01 248.5 250.01 248.57 250.01 248.65C250.01 267.76 234.52 283.25 215.41 283.25Z" id="bmYE3GBzJ"></path><path d="M429.45 283.25C410.34 283.25 394.85 267.76 394.85 248.65C394.85 229.54 410.34 214.05 429.45 214.05C429.45 214.05 429.45 214.05 429.45 214.05C448.5 213.98 463.99 229.37 464.06 248.42C464.06 248.5 464.06 248.57 464.06 248.65C464.06 267.76 448.56 283.25 429.45 283.25Z" id="a2Y3tHGok5"></path><path d="M427.02 467.58L212.98 467.58L212.98 432.98L427.02 432.98L427.02 467.58Z" id="j7GW7m4LYF"></path></defs><g><g><g><use xlink:href="#cnBnX1awb" opacity="1" fill="#51ae32" fill-opacity="1"></use><g><use xlink:href="#cnBnX1awb" opacity="1" fill-opacity="0" stroke="#000000" stroke-width="1" stroke-opacity="0"></use></g></g><g><use xlink:href="#bmYE3GBzJ" opacity="1" fill="#51ae32" fill-opacity="1"></use><g><use xlink:href="#bmYE3GBzJ" opacity="1" fill-opacity="0" stroke="#000000" stroke-width="1" stroke-opacity="0"></use></g></g><g><use xlink:href="#a2Y3tHGok5" opacity="1" fill="#51ae32" fill-opacity="1"></use><g><use xlink:href="#a2Y3tHGok5" opacity="1" fill-opacity="0" stroke="#000000" stroke-width="1" stroke-opacity="0"></use></g></g><g><use xlink:href="#j7GW7m4LYF" opacity="1" fill="#51ae32" fill-opacity="1"></use><g><use xlink:href="#j7GW7m4LYF" opacity="1" fill-opacity="0" stroke="#000000" stroke-width="1" stroke-opacity="0"></use></g></g></g></g></svg>