<?xml version="1.0" encoding="UTF-8" standalone="no"?>
<!DOCTYPE svg PUBLIC "-//W3C//DTD SVG 1.1//EN" "http://www.w3.org/Graphics/SVG/1.1/DTD/svg11.dtd">
<svg version="1.1" xmlns="http://www.w3.org/2000/svg" xmlns:xlink="http://www.w3.org/1999/xlink" preserveAspectRatio="xMidYMid meet" viewBox="0 0 640 640" width="640" height="640"><defs><path d="M0.02 320.01C0.03 496.74 143.31 639.99 320.03 639.98C496.75 639.97 640 496.7 640 319.99C639.83 143.33 496.65 0.16 319.99 0C143.26 0.01 0.01 143.29 0.02 320.01ZM34.53 319.99C34.52 162.35 162.3 34.55 319.94 34.53C477.58 34.52 605.39 162.3 605.4 319.94C605.4 319.96 605.4 319.97 605.4 319.99C605.93 477.08 479.02 604.86 321.93 605.4C321.28 605.4 320.64 605.4 319.99 605.4C162.35 605.41 34.55 477.63 34.53 319.99Z" id="c991HZBir"></path><path d="M215.4 283.25C196.29 283.25 180.8 267.76 180.8 248.65C180.8 229.54 196.29 214.05 215.4 214.05C215.4 214.05 215.41 214.05 215.42 214.05C234.47 213.98 249.96 229.37 250.02 248.42C250.02 248.5 250.02 248.57 250.02 248.65C250 267.76 234.51 283.25 215.4 283.25Z" id="c1ojSGMT8G"></path><path d="M429.44 283.25C410.33 283.25 394.84 267.76 394.84 248.65C394.84 229.54 410.33 214.05 429.44 214.05C448.49 213.98 463.98 229.37 464.04 248.42C464.04 248.5 464.04 248.57 464.04 248.65C464.04 267.76 448.55 283.25 429.44 283.25Z" id="g98gGwBmm"></path><path d="M320.53 387.57C252.82 387.73 189.73 421.97 152.7 478.65C155.63 480.52 179.04 495.43 181.97 497.3C231.44 420.95 333.43 399.16 409.78 448.64C429.24 461.25 445.83 477.83 458.44 497.3C461.37 495.43 484.78 480.52 487.7 478.65C455.28 428.94 402.55 396.09 343.63 388.92C336.01 387.95 328.34 387.5 320.66 387.57C320.64 387.57 320.56 387.57 320.53 387.57Z" id="b2WLheN4IP"></path></defs><g><g><g><use xlink:href="#c991HZBir" opacity="1" fill="#51ae32" fill-opacity="1"></use><g><use xlink:href="#c991HZBir" opacity="1" fill-opacity="0" stroke="#000000" stroke-width="1" stroke-opacity="0"></use></g></g><g><use xlink:href="#c1ojSGMT8G" opacity="1" fill="#51ae32" fill-opacity="1"></use><g><use xlink:href="#c1ojSGMT8G" opacity="1" fill-opacity="0" stroke="#000000" stroke-width="1" stroke-opacity="0"></use></g></g><g><use xlink:href="#g98gGwBmm" opacity="1" fill="#51ae32" fill-opacity="1"></use><g><use xlink:href="#g98gGwBmm" opacity="1" fill-opacity="0" stroke="#000000" stroke-width="1" stroke-opacity="0"></use></g></g><g><use xlink:href="#b2WLheN4IP" opacity="1" fill="#51ae32" fill-opacity="1"></use><g><use xlink:href="#b2WLheN4IP" opacity="1" fill-opacity="0" stroke="#000000" stroke-width="1" stroke-opacity="0"></use></g></g></g></g></svg>